<mxfile host="app.diagrams.net" modified="2024-05-05T17:56:16.188Z" agent="Mozilla/5.0 (Windows NT 10.0; Win64; x64) AppleWebKit/537.36 (KHTML, like Gecko) Chrome/124.0.0.0 Safari/537.36" version="24.3.1" etag="b1H1LxRJwREL0kFyN6jO" type="github">
  <diagram name="Page-1" id="0to0oQ9XVxcDMpXjb0O5">
    <mxGraphModel>
      <root>
        <mxCell id="0" />
        <mxCell id="1" parent="0" />
      </root>
    </mxGraphModel>
  </diagram>
</mxfile>
